Normalized EMG Linear Envelopes
nRows=109
nColumns=4

endheader
time	 med_gas_r	  soleus_r	 tib_ant_r	
3.22077	  0.009540	  0.012376	  0.005671	
3.29234	  0.009345	  0.011887	  0.005464	
3.36391	  0.008930	  0.011383	  0.004888	
3.43548	  0.008573	  0.010870	  0.004122	
3.50706	  0.008787	  0.010472	  0.003643	
3.57863	  0.009568	  0.010370	  0.003711	
3.6502	  0.010233	  0.010584	  0.004259	
3.72177	  0.010180	  0.010900	  0.005020	
3.79335	  0.009538	  0.011026	  0.005572	
3.86492	  0.008844	  0.010859	  0.005542	
3.93649	  0.008371	  0.010554	  0.005081	
4.00806	  0.008117	  0.010275	  0.004793	
4.07964	  0.008176	  0.010087	  0.004937	
4.15121	  0.008622	  0.010064	  0.005124	
4.22278	  0.009166	  0.010239	  0.004971	
4.29435	  0.009382	  0.010487	  0.004578	
4.36593	  0.009216	  0.010648	  0.004221	
4.4375	  0.008977	  0.010658	  0.004033	
4.50907	  0.008970	  0.010508	  0.004092	
4.58065	  0.009340	  0.010238	  0.004397	
4.65222	  0.010035	  0.009977	  0.004743	
4.72379	  0.010721	  0.009894	  0.004939	
4.79536	  0.010968	  0.010120	  0.005144	
4.86694	  0.010702	  0.010632	  0.005716	
4.93851	  0.010261	  0.011180	  0.006672	
5.01008	  0.009849	  0.011326	  0.007525	
5.08165	  0.009184	  0.010477	  0.007811	
5.15323	  0.007921	  0.008226	  0.007466	
5.2248	  0.006421	  0.005498	  0.006719	
5.29637	  0.006295	  0.006126	  0.006131	
5.36794	  0.010402	  0.017507	  0.006736	
5.43952	  0.021079	  0.046599	  0.009787	
5.51109	  0.036559	  0.090355	  0.015618	
5.58266	  0.050745	  0.132739	  0.022396	
5.65423	  0.058690	  0.157143	  0.027101	
5.72581	  0.060209	  0.159679	  0.028304	
5.79738	  0.057998	  0.149410	  0.027383	
5.86895	  0.055869	  0.142034	  0.027273	
5.94052	  0.057864	  0.153344	  0.030344	
6.0121	  0.065545	  0.188874	  0.036390	
6.08367	  0.076885	  0.236611	  0.042342	
6.15524	  0.088667	  0.277000	  0.044870	
6.22681	  0.098456	  0.300132	  0.043242	
6.29839	  0.105154	  0.307421	  0.039563	
6.36996	  0.109361	  0.302305	  0.036997	
6.44153	  0.111417	  0.288028	  0.037236	
6.5131	  0.109468	  0.270773	  0.039260	
6.58468	  0.103163	  0.257457	  0.040773	
6.65625	  0.096112	  0.251045	  0.040399	
6.72782	  0.092025	  0.252102	  0.038780	
6.7994	  0.092411	  0.261879	  0.037837	
6.87097	  0.096024	  0.276866	  0.038536	
6.94254	  0.098734	  0.285951	  0.040116	
7.01411	  0.098078	  0.283960	  0.041659	
7.08569	  0.096375	  0.279830	  0.042716	
7.15726	  0.096761	  0.282097	  0.042521	
7.22883	  0.099182	  0.288998	  0.040892	
7.3004	  0.102672	  0.298074	  0.039352	
7.37198	  0.108852	  0.311987	  0.039185	
7.44355	  0.118875	  0.330602	  0.039909	
7.51512	  0.129697	  0.344932	  0.040950	
7.58669	  0.138124	  0.346147	  0.042491	
7.65827	  0.144589	  0.336512	  0.044145	
7.72984	  0.149536	  0.322636	  0.044850	
7.80141	  0.149954	  0.306188	  0.044419	
7.87298	  0.142222	  0.287890	  0.043677	
7.94456	  0.128050	  0.271529	  0.042915	
8.01613	  0.115019	  0.260994	  0.041769	
8.0877	  0.108718	  0.256245	  0.040546	
8.15927	  0.106821	  0.253223	  0.039835	
8.23085	  0.103255	  0.249570	  0.039120	
8.30242	  0.096340	  0.248851	  0.037532	
8.37399	  0.090517	  0.254306	  0.035727	
8.44556	  0.090749	  0.261441	  0.035426	
8.51714	  0.098471	  0.263963	  0.037172	
8.58871	  0.110913	  0.261398	  0.040166	
8.66028	  0.120804	  0.256138	  0.043653	
8.73185	  0.121754	  0.251924	  0.046780	
8.80343	  0.115935	  0.254109	  0.048215	
8.875	  0.111050	  0.262338	  0.047094	
8.94657	  0.110184	  0.267923	  0.044116	
9.01815	  0.110203	  0.265412	  0.041542	
9.08972	  0.108984	  0.261417	  0.041195	
9.16129	  0.107341	  0.266780	  0.042486	
9.23286	  0.104751	  0.283151	  0.043437	
9.30444	  0.099831	  0.299948	  0.043080	
9.37601	  0.094103	  0.303425	  0.042006	
9.44758	  0.091484	  0.289109	  0.040853	
9.51915	  0.094187	  0.265858	  0.039365	
9.59073	  0.100340	  0.246174	  0.037563	
9.6623	  0.106785	  0.235813	  0.036463	
9.73387	  0.111752	  0.235504	  0.036481	
9.80544	  0.112784	  0.243215	  0.036512	
9.87702	  0.108345	  0.251235	  0.035650	
9.94859	  0.102443	  0.250417	  0.034443	
10.0202	  0.099795	  0.238229	  0.033764	
10.0917	  0.099154	  0.219448	  0.033530	
10.1633	  0.096720	  0.200040	  0.032777	
10.2349	  0.090491	  0.181252	  0.030849	
10.3065	  0.079904	  0.161842	  0.028305	
10.378	  0.066408	  0.143445	  0.026133	
10.4496	  0.053466	  0.128813	  0.024619	
10.5212	  0.043546	  0.118373	  0.023396	
10.5927	  0.036626	  0.110548	  0.022015	
10.6643	  0.031798	  0.102004	  0.020286	
10.7359	  0.028512	  0.090006	  0.018169	
10.8075	  0.026138	  0.076893	  0.015633	
10.879	  0.023719	  0.067734	  0.012781	
10.9506	  0.020753	  0.063231	  0.009798	
